<?xml version="1.0" standalone="no"?>
<!DOCTYPE svg PUBLIC "-//W3C//DTD SVG 20010904//EN"
 "http://www.w3.org/TR/2001/REC-SVG-20010904/DTD/svg10.dtd">
<svg version="1.0" xmlns="http://www.w3.org/2000/svg"
 width="1408.000000pt" height="1408.000000pt" viewBox="0 0 1408.000000 1408.000000"
 preserveAspectRatio="xMidYMid meet">

<g transform="translate(0.000000,1408.000000) scale(0.100000,-0.100000)"
fill="#000000" stroke="none">
<path d="M13875 11004 c-173 -109 -433 -270 -945 -584 -69 -42 -282 -173 -475
-291 -192 -119 -381 -235 -420 -258 -38 -23 -119 -73 -180 -110 -184 -114
-532 -328 -680 -418 -77 -47 -178 -109 -225 -138 -241 -148 -1391 -843 -1839
-1112 -280 -168 -230 -153 -511 -153 -266 0 -316 -9 -405 -70 -64 -44 -132
-125 -149 -178 -15 -45 -56 -333 -56 -392 0 -25 -6 -31 -47 -46 -27 -9 -68
-25 -92 -36 -24 -10 -46 -16 -48 -14 -4 3 46 463 64 584 l6 42 -402 0 c-220 0
-401 -3 -402 -7 0 -5 -8 -75 -18 -158 -10 -82 -17 -151 -17 -152 1 -1 68 -3
150 -5 l148 -3 -6 -50 c-3 -27 -11 -102 -17 -165 -6 -63 -14 -118 -18 -121 -3
-4 -133 -4 -289 -1 l-283 5 7 61 c3 33 17 151 30 261 13 110 33 287 45 393
l22 192 539 0 538 0 0 33 c0 17 7 82 15 142 8 61 15 123 15 138 l0 28 -682 -3
-683 -3 -63 -29 c-73 -34 -142 -104 -160 -162 -19 -65 -146 -1189 -137 -1217
2 -7 6 -24 9 -39 8 -37 51 -85 100 -111 39 -21 56 -22 335 -27 l295 -5 -245
-149 c-134 -82 -282 -173 -329 -202 -47 -28 -150 -92 -230 -141 -80 -49 -167
-103 -195 -120 -27 -17 -93 -58 -145 -90 -52 -31 -223 -136 -380 -232 -537
-329 -675 -413 -815 -498 -77 -47 -196 -120 -265 -163 -119 -73 -253 -156
-1035 -635 -187 -115 -457 -281 -600 -369 -143 -87 -309 -189 -370 -226 -60
-37 -207 -127 -325 -200 -118 -73 -305 -187 -415 -255 -110 -67 -265 -162
-345 -211 -80 -50 -233 -144 -340 -209 -107 -65 -287 -176 -400 -245 -113 -70
-274 -170 -357 -221 l-153 -94 0 -1282 0 -1283 7040 0 7040 0 0 5565 c0 3061
-1 5565 -2 5565 -2 0 -93 -57 -203 -126z m-4109 -3036 c-9 -73 -16 -141 -16
-150 0 -16 12 -18 120 -18 66 0 120 -2 120 -4 0 -8 -20 -161 -26 -193 l-5 -33
-119 0 c-66 0 -120 -3 -120 -7 0 -5 -11 -102 -25 -218 -14 -115 -25 -227 -25
-247 l0 -38 126 0 126 0 -7 -27 c-3 -16 -23 -66 -43 -113 l-38 -85 -214 -2
c-238 -3 -248 -1 -288 57 -22 32 -24 42 -18 125 5 90 51 490 61 533 5 21 2 22
-55 22 -33 0 -60 4 -60 8 0 15 21 176 26 200 4 19 10 22 58 22 l53 0 13 98
c15 127 28 204 36 211 3 3 78 8 167 11 118 4 163 2 165 -7 2 -6 -4 -71 -12
-145z m2259 -319 l-80 -160 -135 -3 c-116 -1 -142 -5 -187 -25 -33 -15 -53
-30 -57 -44 -4 -18 -30 -245 -62 -534 l-5 -53 -174 0 -174 0 5 33 c2 17 11
100 19 182 9 83 31 281 50 442 19 160 35 296 35 302 0 8 54 11 170 11 l170 0
-1 -32 c0 -18 -4 -54 -8 -80 -4 -27 -6 -48 -4 -48 1 0 33 25 70 55 38 30 95
69 127 85 57 29 65 30 190 30 l131 0 -80 -161z m-2859 119 c-6 -33 -26 -186
-26 -194 0 -2 -137 -4 -305 -4 -284 0 -305 -1 -306 -17 0 -10 -4 -41 -8 -70
l-7 -51 250 -4 c207 -3 256 -6 281 -20 78 -42 89 -85 69 -262 -8 -72 -20 -148
-25 -168 -12 -48 -51 -93 -103 -121 -40 -22 -50 -22 -455 -25 l-414 -3 7 88
c4 48 10 98 13 111 l5 22 314 0 313 0 5 33 c3 17 7 53 10 79 l5 47 -247 3
c-226 3 -250 5 -286 24 -77 40 -90 108 -61 311 20 143 54 202 135 237 29 13
101 15 438 16 l403 0 -5 -32z m1841 6 c15 -11 38 -36 51 -54 28 -42 28 -83 0
-322 l-22 -188 -317 0 -316 0 -7 -46 c-3 -26 -6 -60 -6 -75 0 -34 -39 -31 343
-31 158 0 287 -2 287 -4 0 -2 -25 -54 -55 -114 l-55 -110 -361 0 c-346 0 -362
1 -410 21 -63 28 -99 83 -99 153 0 51 44 469 61 575 11 73 35 125 76 163 57
55 77 57 455 55 334 -2 348 -3 375 -23z"/>
<path d="M10436 7518 c-3 -29 -6 -68 -6 -85 l0 -33 149 0 148 0 10 80 c5 45 7
83 4 85 -2 3 -70 5 -151 5 l-147 0 -7 -52z"/>
<path d="M2015 8388 c-13 -76 -87 -739 -145 -1288 -11 -102 -22 -204 -25 -227
l-6 -43 254 0 255 0 12 118 c7 64 18 162 24 217 l11 100 455 5 455 5 67 33
c74 36 110 77 140 156 20 52 82 516 94 706 7 107 -5 150 -53 195 -59 55 -66
55 -829 55 l-703 0 -6 -32z m1080 -320 c-2 -7 -11 -83 -20 -168 -8 -85 -20
-185 -26 -222 l-11 -68 -297 0 c-164 0 -300 2 -302 5 -4 3 45 451 50 463 0 1
138 2 306 2 239 0 303 -3 300 -12z"/>
<path d="M3792 8128 c-18 -161 -57 -511 -87 -778 -30 -267 -55 -493 -55 -502
0 -17 18 -18 249 -18 l250 0 6 43 c9 67 94 788 110 942 9 77 27 240 40 363 14
123 25 228 25 233 0 5 -106 9 -253 9 l-253 0 -32 -292z"/>
<path d="M4530 8409 c0 -6 -9 -83 -20 -172 -10 -89 -49 -427 -85 -752 -36
-324 -68 -605 -71 -622 l-6 -33 255 0 255 0 11 83 c15 113 81 704 81 728 0 31
13 22 43 -32 26 -47 117 -194 371 -601 l111 -178 252 0 c231 0 252 1 257 18 3
9 28 224 55 477 54 495 70 637 101 897 11 91 20 174 20 182 0 14 -29 16 -249
16 l-249 0 -6 -27 c-6 -30 -46 -373 -71 -618 -8 -82 -18 -160 -21 -173 -5 -25
-39 25 -292 443 -67 110 -146 238 -175 285 l-53 85 -257 3 c-181 2 -257 -1
-257 -9z"/>
</g>
</svg>
